<mxfile host="www.draw.io" modified="2019-11-22T06:27:46.770Z" agent="Mozilla/5.0 (X11; Linux x86_64) AppleWebKit/537.36 (KHTML, like Gecko) Chrome/77.0.3865.120 Safari/537.36" etag="1M92DKVB_EL_QQEqFMER" version="12.2.9" type="github" pages="1">
  <diagram id="b2ndLQ_AB856iERkiQ0n" name="Page-1">
    <mxGraphModel dx="1004" dy="614" grid="1" gridSize="10" guides="1" tooltips="1" connect="1" arrows="1" fold="1" page="1" pageScale="1" pageWidth="1200" pageHeight="900" math="0" shadow="0">
      <root>
        <mxCell id="0"/>
        <mxCell id="1" parent="0"/>
        <mxCell id="-zzNrJJaO8AtGu6DnsYK-2" value="" style="whiteSpace=wrap;html=1;aspect=1;fillColor=none;imageAspect=0;" vertex="1" parent="1">
          <mxGeometry x="120" y="40" width="320" height="480" as="geometry"/>
        </mxCell>
        <mxCell id="-zzNrJJaO8AtGu6DnsYK-1" value="User" style="shape=umlActor;verticalLabelPosition=bottom;labelBackgroundColor=#ffffff;verticalAlign=top;html=1;fontSize=11;" vertex="1" parent="1">
          <mxGeometry x="40" y="240" width="40" height="80" as="geometry"/>
        </mxCell>
        <mxCell id="-zzNrJJaO8AtGu6DnsYK-4" value="Use Case Model - GoTasks" style="text;html=1;strokeColor=none;fillColor=none;align=center;verticalAlign=middle;whiteSpace=wrap;rounded=0;fontSize=11;" vertex="1" parent="1">
          <mxGeometry x="205" y="20" width="150" height="20" as="geometry"/>
        </mxCell>
        <mxCell id="-zzNrJJaO8AtGu6DnsYK-5" value="GoTasks System" style="text;html=1;strokeColor=none;fillColor=none;align=center;verticalAlign=middle;whiteSpace=wrap;rounded=0;fontSize=11;" vertex="1" parent="1">
          <mxGeometry x="230" y="40" width="100" height="20" as="geometry"/>
        </mxCell>
        <mxCell id="-zzNrJJaO8AtGu6DnsYK-6" value="Authenticate" style="ellipse;whiteSpace=wrap;html=1;fillColor=none;fontSize=11;" vertex="1" parent="1">
          <mxGeometry x="160" y="115" width="80" height="50" as="geometry"/>
        </mxCell>
        <mxCell id="-zzNrJJaO8AtGu6DnsYK-7" value="Register / Add Account" style="ellipse;whiteSpace=wrap;html=1;fillColor=none;fontSize=11;" vertex="1" parent="1">
          <mxGeometry x="320" y="80" width="80" height="50" as="geometry"/>
        </mxCell>
        <mxCell id="-zzNrJJaO8AtGu6DnsYK-9" value="Add Task" style="ellipse;whiteSpace=wrap;html=1;fillColor=none;fontSize=11;" vertex="1" parent="1">
          <mxGeometry x="160" y="255" width="80" height="50" as="geometry"/>
        </mxCell>
        <mxCell id="-zzNrJJaO8AtGu6DnsYK-10" value="Add Title" style="ellipse;whiteSpace=wrap;html=1;fillColor=none;fontSize=11;" vertex="1" parent="1">
          <mxGeometry x="320" y="220" width="80" height="50" as="geometry"/>
        </mxCell>
        <mxCell id="-zzNrJJaO8AtGu6DnsYK-12" value="" style="endArrow=openThin;html=1;fontSize=11;exitX=0;exitY=0.5;exitDx=0;exitDy=0;entryX=1;entryY=0.5;entryDx=0;entryDy=0;dashed=1;targetPerimeterSpacing=0;endFill=0;" edge="1" parent="1" source="-zzNrJJaO8AtGu6DnsYK-7" target="-zzNrJJaO8AtGu6DnsYK-6">
          <mxGeometry width="50" height="50" relative="1" as="geometry">
            <mxPoint x="40" y="510" as="sourcePoint"/>
            <mxPoint x="90" y="460" as="targetPoint"/>
          </mxGeometry>
        </mxCell>
        <mxCell id="-zzNrJJaO8AtGu6DnsYK-14" value="&amp;lt;&amp;lt;extend&amp;gt;&amp;gt;" style="text;html=1;strokeColor=none;fillColor=none;align=center;verticalAlign=middle;whiteSpace=wrap;rounded=0;fontSize=11;rotation=335;" vertex="1" parent="1">
          <mxGeometry x="260" y="101" width="40" height="20" as="geometry"/>
        </mxCell>
        <mxCell id="-zzNrJJaO8AtGu6DnsYK-23" value="" style="endArrow=openThin;html=1;fontSize=11;exitX=0;exitY=0.5;exitDx=0;exitDy=0;dashed=1;targetPerimeterSpacing=0;jumpSize=6;endSize=6;endFill=0;entryX=1;entryY=0.4;entryDx=0;entryDy=0;entryPerimeter=0;" edge="1" parent="1" source="-zzNrJJaO8AtGu6DnsYK-10" target="-zzNrJJaO8AtGu6DnsYK-9">
          <mxGeometry width="50" height="50" relative="1" as="geometry">
            <mxPoint x="320" y="239.5" as="sourcePoint"/>
            <mxPoint x="250" y="275" as="targetPoint"/>
          </mxGeometry>
        </mxCell>
        <mxCell id="-zzNrJJaO8AtGu6DnsYK-24" value="&amp;lt;&amp;lt;extend&amp;gt;&amp;gt;" style="text;html=1;strokeColor=none;fillColor=none;align=center;verticalAlign=middle;whiteSpace=wrap;rounded=0;fontSize=11;rotation=340;" vertex="1" parent="1">
          <mxGeometry x="260" y="240" width="40" height="20" as="geometry"/>
        </mxCell>
        <mxCell id="-zzNrJJaO8AtGu6DnsYK-29" value="Edit Account" style="ellipse;whiteSpace=wrap;html=1;fillColor=none;fontSize=11;" vertex="1" parent="1">
          <mxGeometry x="320" y="150" width="80" height="50" as="geometry"/>
        </mxCell>
        <mxCell id="-zzNrJJaO8AtGu6DnsYK-30" value="" style="endArrow=openThin;html=1;fontSize=11;exitX=0.5;exitY=0;exitDx=0;exitDy=0;entryX=0.5;entryY=1;entryDx=0;entryDy=0;dashed=1;targetPerimeterSpacing=0;endFill=0;" edge="1" parent="1" source="-zzNrJJaO8AtGu6DnsYK-29" target="-zzNrJJaO8AtGu6DnsYK-7">
          <mxGeometry width="50" height="50" relative="1" as="geometry">
            <mxPoint x="330" y="115" as="sourcePoint"/>
            <mxPoint x="250" y="150" as="targetPoint"/>
          </mxGeometry>
        </mxCell>
        <mxCell id="-zzNrJJaO8AtGu6DnsYK-31" value="&amp;lt;&amp;lt;extend&amp;gt;&amp;gt;" style="text;html=1;strokeColor=none;fillColor=none;align=center;verticalAlign=middle;whiteSpace=wrap;rounded=0;fontSize=11;rotation=335;" vertex="1" parent="1">
          <mxGeometry x="370" y="121" width="40" height="20" as="geometry"/>
        </mxCell>
        <mxCell id="-zzNrJJaO8AtGu6DnsYK-44" value="Add Note" style="ellipse;whiteSpace=wrap;html=1;fillColor=none;fontSize=11;" vertex="1" parent="1">
          <mxGeometry x="320" y="290" width="80" height="50" as="geometry"/>
        </mxCell>
        <mxCell id="-zzNrJJaO8AtGu6DnsYK-45" value="" style="endArrow=openThin;html=1;fontSize=11;exitX=0;exitY=0.5;exitDx=0;exitDy=0;dashed=1;targetPerimeterSpacing=0;jumpSize=6;endSize=6;endFill=0;entryX=0.992;entryY=0.433;entryDx=0;entryDy=0;entryPerimeter=0;" edge="1" parent="1" source="-zzNrJJaO8AtGu6DnsYK-44" target="-zzNrJJaO8AtGu6DnsYK-9">
          <mxGeometry width="50" height="50" relative="1" as="geometry">
            <mxPoint x="323" y="317" as="sourcePoint"/>
            <mxPoint x="242" y="278" as="targetPoint"/>
          </mxGeometry>
        </mxCell>
        <mxCell id="-zzNrJJaO8AtGu6DnsYK-46" value="&amp;lt;&amp;lt;extend&amp;gt;&amp;gt;" style="text;html=1;strokeColor=none;fillColor=none;align=center;verticalAlign=middle;whiteSpace=wrap;rounded=0;fontSize=11;rotation=25;" vertex="1" parent="1">
          <mxGeometry x="270" y="281" width="40" height="20" as="geometry"/>
        </mxCell>
        <mxCell id="-zzNrJJaO8AtGu6DnsYK-47" value="Add Tag" style="ellipse;whiteSpace=wrap;html=1;fillColor=none;fontSize=11;" vertex="1" parent="1">
          <mxGeometry x="320" y="360" width="80" height="50" as="geometry"/>
        </mxCell>
        <mxCell id="-zzNrJJaO8AtGu6DnsYK-48" value="" style="endArrow=openThin;html=1;fontSize=11;exitX=0;exitY=0.5;exitDx=0;exitDy=0;entryX=1;entryY=0.5;entryDx=0;entryDy=0;dashed=1;targetPerimeterSpacing=0;jumpSize=6;endSize=6;endFill=0;" edge="1" parent="1" source="-zzNrJJaO8AtGu6DnsYK-47" target="-zzNrJJaO8AtGu6DnsYK-9">
          <mxGeometry width="50" height="50" relative="1" as="geometry">
            <mxPoint x="320" y="379.5" as="sourcePoint"/>
            <mxPoint x="240" y="350" as="targetPoint"/>
          </mxGeometry>
        </mxCell>
        <mxCell id="-zzNrJJaO8AtGu6DnsYK-49" value="&amp;lt;&amp;lt;extend&amp;gt;&amp;gt;" style="text;html=1;strokeColor=none;fillColor=none;align=center;verticalAlign=middle;whiteSpace=wrap;rounded=0;fontSize=11;rotation=52;" vertex="1" parent="1">
          <mxGeometry x="280" y="332" width="40" height="20" as="geometry"/>
        </mxCell>
        <mxCell id="-zzNrJJaO8AtGu6DnsYK-52" value="Add Step" style="ellipse;whiteSpace=wrap;html=1;fillColor=none;fontSize=11;" vertex="1" parent="1">
          <mxGeometry x="320" y="430" width="80" height="50" as="geometry"/>
        </mxCell>
        <mxCell id="-zzNrJJaO8AtGu6DnsYK-53" value="" style="endArrow=openThin;html=1;fontSize=11;exitX=0;exitY=0.5;exitDx=0;exitDy=0;entryX=0.983;entryY=0.667;entryDx=0;entryDy=0;dashed=1;targetPerimeterSpacing=0;jumpSize=6;endFill=0;entryPerimeter=0;" edge="1" parent="1" source="-zzNrJJaO8AtGu6DnsYK-52" target="-zzNrJJaO8AtGu6DnsYK-9">
          <mxGeometry width="50" height="50" relative="1" as="geometry">
            <mxPoint x="320" y="444.5" as="sourcePoint"/>
            <mxPoint x="240" y="415" as="targetPoint"/>
          </mxGeometry>
        </mxCell>
        <mxCell id="-zzNrJJaO8AtGu6DnsYK-54" value="&amp;lt;&amp;lt;extend&amp;gt;&amp;gt;" style="text;html=1;strokeColor=none;fillColor=none;align=center;verticalAlign=middle;whiteSpace=wrap;rounded=0;fontSize=11;rotation=64;" vertex="1" parent="1">
          <mxGeometry x="290" y="401" width="40" height="20" as="geometry"/>
        </mxCell>
        <mxCell id="-zzNrJJaO8AtGu6DnsYK-55" value="Edit Task" style="ellipse;whiteSpace=wrap;html=1;fillColor=none;fontSize=11;" vertex="1" parent="1">
          <mxGeometry x="160" y="325" width="80" height="50" as="geometry"/>
        </mxCell>
        <mxCell id="-zzNrJJaO8AtGu6DnsYK-56" value="Position / Sort Task" style="ellipse;whiteSpace=wrap;html=1;fillColor=none;fontSize=11;" vertex="1" parent="1">
          <mxGeometry x="160" y="390" width="80" height="50" as="geometry"/>
        </mxCell>
        <mxCell id="-zzNrJJaO8AtGu6DnsYK-57" value="" style="endArrow=none;html=1;fontSize=11;entryX=0;entryY=0.5;entryDx=0;entryDy=0;" edge="1" parent="1" target="-zzNrJJaO8AtGu6DnsYK-6">
          <mxGeometry width="50" height="50" relative="1" as="geometry">
            <mxPoint x="80" y="270" as="sourcePoint"/>
            <mxPoint x="105" y="376" as="targetPoint"/>
          </mxGeometry>
        </mxCell>
        <mxCell id="-zzNrJJaO8AtGu6DnsYK-58" value="" style="endArrow=none;html=1;fontSize=11;entryX=0;entryY=0.5;entryDx=0;entryDy=0;" edge="1" parent="1" target="-zzNrJJaO8AtGu6DnsYK-9">
          <mxGeometry width="50" height="50" relative="1" as="geometry">
            <mxPoint x="80" y="280" as="sourcePoint"/>
            <mxPoint x="170" y="150" as="targetPoint"/>
          </mxGeometry>
        </mxCell>
        <mxCell id="-zzNrJJaO8AtGu6DnsYK-59" value="" style="endArrow=none;html=1;fontSize=11;entryX=0;entryY=0.5;entryDx=0;entryDy=0;" edge="1" parent="1" target="-zzNrJJaO8AtGu6DnsYK-55">
          <mxGeometry width="50" height="50" relative="1" as="geometry">
            <mxPoint x="80" y="290" as="sourcePoint"/>
            <mxPoint x="170" y="290" as="targetPoint"/>
          </mxGeometry>
        </mxCell>
        <mxCell id="-zzNrJJaO8AtGu6DnsYK-60" value="" style="endArrow=none;html=1;fontSize=11;entryX=0;entryY=0.5;entryDx=0;entryDy=0;" edge="1" parent="1" target="-zzNrJJaO8AtGu6DnsYK-56">
          <mxGeometry width="50" height="50" relative="1" as="geometry">
            <mxPoint x="80" y="300" as="sourcePoint"/>
            <mxPoint x="170" y="360" as="targetPoint"/>
          </mxGeometry>
        </mxCell>
      </root>
    </mxGraphModel>
  </diagram>
</mxfile>
